<svg id="Layer_1" viewBox="0 0 24 24" xmlns="http://www.w3.org/2000/svg" data-name="Layer 1"><path d="m18.5 0h-13c-1.465 0-2.845.573-3.886 1.615-1.041 1.041-1.614 2.421-1.614 3.886l.003 15.757c0 1.511 1.176 2.742 2.748 2.742.686 0 1.363-.251 1.883-.741l3.46-3.257 10.404.002h.001c1.469 0 2.85-.572 3.889-1.61 1.039-1.039 1.611-2.42 1.611-3.89v-9.004c0-3.033-2.467-5.5-5.5-5.5zm2.5 14.503c0 .668-.26 1.296-.732 1.768s-1.1.732-1.768.732l-10.999-.002c-.382 0-.75.146-1.028.408l-3.468 3.265-.003-15.174c0-.664.261-1.29.735-1.765s1.101-.736 1.765-.736h13c1.378 0 2.5 1.122 2.5 2.5v9.004zm-4-8.538v3.056c0 .54-.438.979-.979.979h-3.056c-.859 0-1.288-1.038-.681-1.645l.275-.275c-.179-.052-.367-.08-.559-.08-1.103 0-2 .897-2 2s.897 2 2 2c.364 0 .72-.099 1.029-.285.709-.428 1.63-.199 2.059.51.428.709.199 1.631-.51 2.059-.776.468-1.667.715-2.578.715-2.757 0-5-2.243-5-5s2.243-5 5-5c1.008 0 1.971.314 2.782.857l.573-.573c.607-.607 1.645-.177 1.645.681z"/></svg>