<svg id="Layer_1" viewBox="0 0 24 24" xmlns="http://www.w3.org/2000/svg" data-name="Layer 1"><path d="m23 2.5v19c0 .828-.672 1.5-1.5 1.5s-1.5-.672-1.5-1.5v-19c0-.828.672-1.5 1.5-1.5s1.5.672 1.5 1.5zm-6.5 8h-10.929c.95-1.022 2.029-1.946 3.25-2.744.693-.454.888-1.384.435-2.077-.453-.692-1.383-.886-2.076-.435-2.439 1.596-4.438 3.597-5.943 5.947-.315.493-.315 1.124 0 1.617 1.504 2.351 3.504 4.352 5.943 5.947.683.449 1.62.263 2.076-.435.454-.693.259-1.623-.435-2.077-1.221-.798-2.3-1.722-3.25-2.744h10.929c.828 0 1.5-.672 1.5-1.5s-.672-1.5-1.5-1.5z"/></svg>