<svg id="Layer_1" viewBox="0 0 24 24" xmlns="http://www.w3.org/2000/svg" data-name="Layer 1"><path d="m22.561 20.439-2.026-2.026c.245-1.533.466-3.658.466-6.413 0-2.071-.074-3.913-.216-5.419.451.147.95-.125 1.138-.57.213-.509-.025-1.094-.533-1.308-.108-.046-1.83-.756-4.479-1.245-.307-1.135-.637-1.639-.738-1.771-.146-.191-.355-.323-.591-.373-.062-.013-1.533-.315-3.581-.315s-3.488.304-3.549.317c-.232.05-.439.181-.584.37-.101.132-.432.633-.737 1.765-.463.085-.886.177-1.287.27l-2.283-2.282c-.586-.586-1.535-.586-2.121 0-.586.585-.586 1.536 0 2.121l18.999 19.001c.586.586 1.535.586 2.121 0 .586-.585.586-1.536 0-2.121zm-9.561-11.439c0-.552.447-1 1-1s1 .448 1 1v3.879l-2-2zm-2 6.991 6.449 6.449c-1.264.275-3.126.56-5.45.56-4.397 0-7.168-1.02-7.284-1.063-.276-.104-.492-.324-.591-.602-.046-.129-1.125-3.232-1.125-9.335 0-1.425.038-2.732.105-3.904l5.895 5.895v4.009c0 .552.447 1 1 1s1-.448 1-1v-2.009z"/></svg>